<?xml version="1.0" encoding="UTF-8" standalone="no"?>
<svg
   xmlns:dc="http://purl.org/dc/elements/1.1/"
   xmlns:cc="http://creativecommons.org/ns#"
   xmlns:rdf="http://www.w3.org/1999/02/22-rdf-syntax-ns#"
   xmlns:svg="http://www.w3.org/2000/svg"
   xmlns="http://www.w3.org/2000/svg"
   xmlns:sodipodi="http://sodipodi.sourceforge.net/DTD/sodipodi-0.dtd"
   xmlns:inkscape="http://www.inkscape.org/namespaces/inkscape"
   version="1.0"
   width="157.5pt"
   height="172.5pt"
   viewBox="0 0 157.5 172.5"
   preserveAspectRatio="xMidYMid meet"
   id="svg849"
   sodipodi:docname="boo.svg"
   inkscape:version="1.0.1 (c497b03c, 2020-09-10)">
  <metadata
     id="metadata855">
    <rdf:RDF>
      <cc:Work
         rdf:about="">
        <dc:format>image/svg+xml</dc:format>
        <dc:type
           rdf:resource="http://purl.org/dc/dcmitype/StillImage" />
        <dc:title></dc:title>
      </cc:Work>
    </rdf:RDF>
  </metadata>
  <defs
     id="defs853" />
  <sodipodi:namedview
     pagecolor="#ffffff"
     bordercolor="#666666"
     borderopacity="1"
     objecttolerance="10"
     gridtolerance="10"
     guidetolerance="10"
     inkscape:pageopacity="0"
     inkscape:pageshadow="2"
     inkscape:window-width="1440"
     inkscape:window-height="874"
     id="namedview851"
     showgrid="false"
     inkscape:zoom="0.78287443"
     inkscape:cx="117.72719"
     inkscape:cy="149.99082"
     inkscape:window-x="0"
     inkscape:window-y="26"
     inkscape:window-maximized="0"
     inkscape:current-layer="g847" />
  <g
     transform="matrix(0.1,0,0,-0.1,-239.13751,469.0601)"
     fill="#000000"
     stroke="none"
     id="g847">
    <path
       d="m 3294.9017,4684.2823 c -91.5843,-15.3908 -139.3296,-44.9573 -169.713,-104.9002 -11.7194,-23.4912 -15.1918,-33.6167 -26.9111,-81.004 -13.8895,-57.1079 -9.115,-183.4741 9.1151,-232.0765 22.1364,-59.943 50.7837,-85.0542 138.4615,-122.3161 9.5491,-4.0502 8.681,-4.4552 -8.681,-3.2402 -10.8512,0.8101 -39.0644,0 -63.3711,-1.62 -103.3036,-8.1004 -202.2667,-51.8426 -271.2804,-119.4809 -59.4647,-59.133 -89.8481,-121.101 -108.5122,-221.951 -4.7746,-26.7314 -9.5491,-49.4125 -10.4172,-50.2225 -0.434,-0.8101 -69.4478,-1.6201 -152.3511,-2.0251 -112.8527,-0.8101 -155.8235,-2.4301 -168.845,-6.4803 -9.549,-2.8352 -26.4769,-13.7707 -37.7622,-24.3012 -26.911,-25.1113 -36.026,-53.4627 -32.5536,-101.2551 3.4723,-43.3371 14.7576,-66.0182 44.2729,-86.2692 23.8727,-17.0109 26.477,-20.6561 30.3834,-49.8175 6.0767,-40.907 55.9923,-66.8283 92.8865,-48.1974 19.5322,10.1255 30.8174,24.7062 37.3282,48.1974 l 5.2085,19.0359 51.6518,-0.405 c 28.2132,-0.405 62.9371,-1.6201 76.8267,-2.8351 l 24.7407,-2.8352 v -26.7313 c 0,-14.5807 -5.2085,-61.158 -11.2852,-103.6851 -22.5706,-157.9578 -23.4387,-195.6247 -6.0767,-243.4171 10.8512,-29.9715 46.8772,-69.6634 75.0904,-82.219 27.3451,-12.5557 59.4647,-11.3406 92.4524,3.2401 l 26.0429,11.3406 22.1365,-22.6811 c 52.5199,-54.6777 114.5889,-62.3731 174.0535,-21.4661 15.6258,10.5305 14.7577,10.9355 39.9325,-10.9355 12.5874,-11.3406 52.954,-25.5163 77.6947,-27.5414 36.4601,-3.2402 65.9755,6.8853 92.8865,31.9966 l 20.8343,19.846 16.0598,-11.7456 c 30.8175,-22.6811 66.4095,-26.7313 105.9079,-12.9607 57.2944,20.251 88.5459,71.6886 98.9631,164.0332 4.3405,38.8819 7.3788,48.6024 22.5705,77.3588 26.043,48.6024 28.2132,84.6492 21.2684,343.862 -6.5107,257.1877 -11.7193,291.2094 -53.822,368.5683 -19.0981,35.6417 -39.0644,60.753 -63.3711,81.409 -10.4172,8.5054 -23.4387,19.846 -29.0813,24.3012 -17.3619,15.3908 -40.9636,26.3047 -48.6735,30.0275 -21.8242,9.0759 -24.6744,11.2 -48.1788,17.8486 0,0 -35.159,10.8505 -42.7465,13.4635 0,0 -21.8694,8.9675 -21.4333,10.3489 0.8681,2.8352 7.3789,4.4553 14.3236,3.6452 6.9448,-0.405 52.5199,-1.215 101.5674,-2.0251 l 88.98,-0.81 -1.3021,-30.3765 c -2.1703,-48.1974 10.4172,-68.4484 47.7454,-76.9538 17.7959,-4.4552 23.8726,-4.0502 43.4048,2.4301 29.5153,10.1255 62.069,38.4769 91.1503,78.9789 16.0598,22.6811 26.0429,32.8066 33.8558,34.4267 125.8741,23.8962 184.4707,63.5882 210.9476,142.9721 9.1151,27.1363 19.0982,91.5345 19.0982,121.911 0,34.4267 -9.5491,92.3446 -21.2684,127.5813 -26.477,83.0292 -94.1886,140.947 -176.2238,151.8826 -98.095,12.9606 -409.3079,17.0108 -473.9812,6.0753 z m 458.7895,-47.7924 c 65.1073,-12.1506 98.095,-29.5665 122.4017,-64.3982 18.6641,-26.3263 27.3451,-50.6275 36.0261,-100.445 14.3236,-84.2441 6.0767,-162.413 -22.5705,-211.8255 -26.477,-44.9572 -80.2991,-76.1437 -149.3128,-85.4592 -21.2684,-2.8351 -39.4984,-6.0753 -39.9325,-6.8853 -0.8681,-0.8101 -11.7193,-16.6058 -24.3067,-34.8318 -25.1748,-36.4518 -66.8435,-76.1437 -84.2055,-80.1939 -14.7576,-3.6452 -28.2131,4.0502 -32.1196,17.4158 -1.3021,6.0753 0.4341,28.7565 4.3405,50.6275 3.9065,22.2761 6.5107,41.7171 5.2086,43.7422 -1.3021,1.6201 -39.0644,2.8352 -83.7714,2.0251 -137.5935,-2.4301 -204.437,5.2653 -259.1271,30.7815 -49.9156,23.0862 -78.1288,60.753 -88.98,119.481 -7.3788,38.4769 -3.4724,168.0833 6.0767,200.8899 18.6641,63.9932 59.0306,101.255 125.8741,116.2408 38.6304,8.9104 103.3036,11.3405 273.8848,10.1255 137.5934,-0.8101 185.3388,-2.4302 210.5136,-7.2904 z m -436.219,-552.8524 c 109.3803,-27.5413 190.9815,-94.7747 227.0075,-188.3343 26.0429,-67.2333 28.6472,-98.8249 29.0813,-369.3783 v -243.012 l -9.9831,-19.036 c -34.2899,-64.8032 -112.4187,-68.4484 -145.4064,-6.8853 l -12.1533,23.0861 -3.0384,113.0006 c -3.0383,121.101 -4.3405,126.7713 -25.1748,126.7713 -6.0767,0 -13.0215,-4.0502 -17.3619,-10.5305 -6.5108,-8.9105 -6.9448,-21.4661 -4.7746,-120.291 3.4724,-136.8968 8.681,-158.7678 45.5751,-189.9544 22.5706,-19.0359 30.8175,-23.0861 58.5966,-27.5413 21.7025,-4.0502 50.3497,-1.2151 69.4478,6.0753 5.6426,2.0251 7.3788,0.81 7.3788,-5.6703 0,-18.6309 -14.3236,-71.6886 -23.8726,-89.9145 -25.6089,-46.5773 -80.7331,-61.158 -117.1932,-31.1865 -16.4938,12.9606 -21.7024,30.7815 -25.6089,81.814 -1.7362,21.4661 -4.7745,34.4267 -9.9831,39.692 -8.681,8.9104 -10.8512,8.9104 -23.0046,0 -8.2469,-6.0753 -9.549,-12.5556 -13.0214,-58.7279 -3.9065,-58.7279 -13.4555,-83.4341 -36.4601,-96.3948 -26.0429,-14.5807 -73.7883,-6.0753 -96.7929,17.0109 -12.5874,12.9606 -18.23,38.4769 -18.6641,81.409 0,44.5522 -4.3405,55.8928 -21.2684,55.8928 -6.5107,0 -14.3236,-2.4302 -16.9279,-4.8603 -2.6043,-2.8351 -6.5107,-20.656 -9.549,-39.6919 -9.9832,-71.2836 -24.7408,-95.5848 -59.8988,-100.04 -23.4386,-2.8351 -44.2729,4.0502 -67.7116,23.4912 -23.0046,19.0359 -31.6855,40.907 -35.592,88.6994 -3.0383,40.907 -4.7745,47.3873 -13.0214,50.2224 -19.5322,6.8854 -29.9494,-7.2903 -34.2899,-46.9823 -3.9064,-31.9966 -16.4938,-58.3229 -32.9877,-66.0183 -38.6303,-19.0359 -85.0735,7.2904 -100.2652,56.2978 -7.8129,25.1113 -5.6427,102.0651 4.7745,172.5386 13.8896,95.1797 16.9279,125.5562 26.477,257.1877 13.4555,182.6641 23.8727,244.2271 53.388,317.1307 19.0981,47.3874 42.1027,84.6492 69.0137,112.1906 41.2346,42.5271 110.2484,80.599 166.2407,92.7496 16.9279,3.2401 34.2898,7.2903 39.0644,8.1004 4.7745,1.215 39.0643,1.215 75.9585,0.81 52.0858,-0.81 75.0904,-3.2402 102.0014,-9.7205 z m -618.9534,-379.5038 c 39.0643,-1.215 72.4861,-3.2401 73.7882,-4.0502 1.7362,-0.81 1.3022,-19.4409 -0.8681,-41.312 -1.7362,-21.8711 -4.7745,-57.9179 -6.5107,-80.194 l -3.0383,-40.502 -93.7546,1.6201 c -74.6563,0.81 -94.6226,0 -97.6609,-4.0502 -1.7362,-2.8352 -7.3788,-19.036 -12.1534,-35.6418 -9.9831,-32.4016 -16.4938,-39.6919 -34.7239,-35.2367 -17.3619,4.0502 -25.6089,25.5162 -22.1365,55.0827 3.0384,23.0861 2.6043,23.0861 -9.549,25.5163 -58.5966,10.9355 -73.7883,115.0257 -22.1365,150.2624 21.7024,14.5807 28.6472,14.5807 228.7437,8.5054 z"
       id="path833"
       style="fill:#848589;fill-opacity:1;stroke-width:0.419283"
       sodipodi:nodetypes="ccccccccccccscccccccccsscccccccccccccccccccccccccccccccscccccccccscccccccccccccccccccscccccscccccccccscccccccccccccccccccccccccccccc" />
    <path
       d="m 3256.2714,4523.8943 c -7.8129,-8.1004 -8.247,-15.7958 -8.247,-104.4952 0,-113.4056 0.4341,-114.2156 38.6304,-122.316 42.5368,-8.9105 79.4309,5.6703 100.6993,39.2869 10.4172,16.2008 11.2852,21.0611 8.681,42.9322 -1.3022,13.3656 -6.5108,30.3765 -11.2853,38.0718 -12.1534,17.8209 -39.9325,29.9715 -69.0138,29.9715 h -22.5705 l 3.0383,32.4016 c 2.1703,26.3263 1.7362,34.0217 -4.3404,42.5271 -8.681,12.5557 -24.3068,13.3657 -35.592,1.6201 z m 88.98,-131.6315 c 12.5874,-14.9857 11.2852,-28.3514 -3.4724,-42.5271 -9.1151,-8.5054 -16.9279,-11.7456 -27.7792,-11.7456 -13.4555,0 -15.1917,1.2151 -17.796,12.5556 -3.4723,16.6059 -3.4723,46.1723 0.4341,49.4125 1.3021,1.6201 11.2853,2.8351 21.2684,2.8351 14.7576,0 20.4003,-2.0251 27.3451,-10.5305 z"
       id="path835"
       style="fill:#ff681d;fill-opacity:1;stroke-width:0.419283" />
    <path
       d="m 3706.8139,4448.5606 c -20.4002,-9.3155 -42.5367,-35.2368 -48.1794,-56.2978 -15.6257,-58.3229 35.158,-107.7353 96.7929,-94.7747 51.2178,10.5305 76.3926,51.4376 63.3711,103.2801 -9.9831,40.097 -71.618,66.4233 -111.9846,47.7924 z m 49.0475,-40.097 c 9.5491,-3.6452 19.5322,-23.0861 19.5322,-38.0719 0,-16.2008 -18.23,-32.4016 -35.592,-32.4016 -27.7791,0 -40.8005,16.6058 -33.4217,42.1221 7.3788,24.7062 27.3451,36.0468 49.4815,28.3514 z"
       id="path837"
       style="fill:#ff681d;fill-opacity:1;stroke-width:0.419283" />
    <path
       d="m 3494.5641,4444.9154 c -48.1794,-22.2761 -65.1073,-72.9036 -37.7622,-113.8106 17.3619,-25.9213 35.1579,-35.2368 69.4478,-35.2368 32.9877,0 56.8604,12.5557 69.0137,36.8569 21.7025,42.5271 6.9448,93.5596 -32.9877,112.5955 -16.0598,8.1004 -50.3496,7.6954 -67.7116,-0.405 z m 54.6902,-43.7422 c 13.8895,-13.7706 16.0598,-34.0216 5.2085,-49.8174 -7.8128,-11.3406 -11.7193,-13.3657 -25.6088,-13.3657 -37.7623,0 -47.7454,35.2368 -19.0982,66.0183 9.115,9.7205 27.7791,8.5054 39.4985,-2.8352 z"
       id="path839"
       style="fill:#ff681d;fill-opacity:1;stroke-width:0.419283" />
    <path
       d="m 2904.6919,3765.2918 c -17.362,-16.2008 -19.5322,-33.6167 -6.0767,-53.8677 9.5491,-14.5807 23.4386,-19.441 45.1411,-15.7958 38.6303,6.8853 47.7453,56.2978 13.8895,75.7388 -20.4002,11.7455 -35.592,10.1255 -52.9539,-6.0753 z"
       id="path841"
       style="fill:#848589;fill-opacity:1;stroke-width:0.419283" />
    <path
       d="m 3289.2591,3737.3454 c -6.0767,-2.8352 -14.3236,-11.3406 -18.2301,-19.036 -22.5705,-42.5271 33.4218,-79.3839 70.75,-46.1723 14.3236,12.9607 17.796,27.9464 10.4171,44.5523 -10.4171,23.4911 -37.7622,32.4016 -62.937,20.656 z"
       id="path843"
       style="fill:#848589;fill-opacity:1;stroke-width:0.419283" />
    <path
       d="m 3077.0092,3674.9723 c -39.9324,-18.6309 -41.2346,-76.9538 -2.1702,-101.255 15.6258,-9.3155 52.0858,-9.3155 67.7116,0.405 24.3067,14.9857 32.9877,57.1078 16.4939,82.2191 -15.6258,24.3012 -51.6518,32.4016 -82.0353,18.6309 z"
       id="path845"
       style="fill:#848589;fill-opacity:1;stroke-width:0.419283" />
  </g>
</svg>
